<svg width="38" height="38" viewBox="0 0 38 38" fill="none" xmlns="http://www.w3.org/2000/svg">
<path d="M17.4011 12.2365L17.7173 12.2279H30.6054C32.0317 12.2278 33.404 12.7733 34.4408 13.7527C35.4777 14.732 36.1006 16.0709 36.1817 17.4949L36.1903 17.8128V30.701C36.1905 32.1274 35.6447 33.4999 34.665 34.5368C33.6853 35.5737 32.346 36.1965 30.9216 36.2773L30.6054 36.2859H17.7173C16.2908 36.2859 14.9183 35.7401 13.8814 34.7604C12.8445 33.7807 12.2218 32.4414 12.141 31.0172L12.1324 30.7027V17.8145C12.1324 16.388 12.6781 15.0155 13.6579 13.9786C14.6375 12.9417 15.9769 12.3173 17.4011 12.2365ZM30.6054 14.8073H17.7173C16.9626 14.8073 16.2355 15.0911 15.6803 15.6023C15.1251 16.1136 14.7825 16.8149 14.7204 17.567L14.7101 17.8145V30.7027C14.7101 31.4576 14.9942 32.185 15.5058 32.7402C16.0174 33.2955 16.7191 33.6379 17.4716 33.6996L17.7173 33.7099H30.6054C31.3605 33.7098 32.0879 33.4257 32.6431 32.9141C33.1983 32.4026 33.5407 31.7009 33.6024 30.9484L33.6127 30.7027V17.8145C33.6127 17.0169 33.296 16.252 32.732 15.6881C32.168 15.1241 31.4031 14.8073 30.6054 14.8073ZM24.1613 17.3849C24.5033 17.3849 24.831 17.5207 25.0728 17.7624C25.3144 18.0041 25.4502 18.3319 25.4502 18.6737V22.9664H29.7462C30.0882 22.9664 30.4159 23.1021 30.6577 23.3437C30.8993 23.5855 31.035 23.9134 31.035 24.2552C31.035 24.597 30.8993 24.9248 30.6577 25.1665C30.4159 25.4082 30.0882 25.544 29.7462 25.544H25.4502V29.8435C25.4502 30.1853 25.3144 30.5132 25.0728 30.7548C24.831 30.9965 24.5033 31.1323 24.1613 31.1323C23.8195 31.1323 23.4918 30.9965 23.2501 30.7548C23.0084 30.5132 22.8725 30.1853 22.8725 29.8435V25.544H18.5765C18.2347 25.544 17.9069 25.4082 17.6652 25.1665C17.4235 24.9248 17.2877 24.597 17.2877 24.2552C17.2877 23.9134 17.4235 23.5855 17.6652 23.3437C17.9069 23.1021 18.2347 22.9664 18.5765 22.9664H22.8725V18.6737C22.8725 18.3319 23.0084 18.0041 23.2501 17.7624C23.4918 17.5207 23.8195 17.3849 24.1613 17.3849ZM25.1615 5.75632L25.2508 6.06048L26.4417 10.5078H23.773L22.7625 6.72723C22.6605 6.34555 22.4842 5.98774 22.2437 5.67423C22.0033 5.36072 21.7035 5.09767 21.3613 4.9001C21.0192 4.70253 20.6415 4.57432 20.2497 4.5228C19.8579 4.47127 19.4599 4.49746 19.0782 4.59982L6.63006 7.937C5.90339 8.13187 5.27616 8.59203 4.87214 9.22669C4.46812 9.86136 4.31666 10.6244 4.44766 11.3653L4.50265 11.6196L7.83982 24.0679C7.99636 24.6528 8.32585 25.1769 8.78515 25.5715C9.24445 25.966 9.81218 26.2128 10.414 26.2795V28.8674C9.29675 28.8008 8.22522 28.4002 7.33822 27.7176C6.45122 27.0349 5.78964 26.1018 5.43919 25.0388L5.34983 24.7363L2.01438 12.2863C1.64492 10.9088 1.81648 9.44212 2.49387 8.18703C3.17125 6.93195 4.30314 5.98357 5.65743 5.53636L5.96331 5.44701L18.4115 2.11155C19.7892 1.74209 21.2558 1.91365 22.5108 2.59104C23.7659 3.26842 24.7143 4.40203 25.1615 5.75632Z" fill="#8652FF"/>
</svg>
