<svg width="37" height="38" viewBox="0 0 37 38" fill="none" xmlns="http://www.w3.org/2000/svg">
<path d="M23.1723 5.18384C24.5055 5.18686 25.823 5.47193 27.0381 6.02035C28.2532 6.56875 29.3386 7.36807 30.2229 8.36579C31.1072 9.36352 31.7703 10.5371 32.1686 11.8093C32.5671 13.0815 32.6919 14.4237 32.5347 15.7476C32.3774 17.0714 31.942 18.3471 31.2567 19.4907C30.5714 20.6343 29.6518 21.6198 28.5586 22.3828C27.4653 23.1458 26.2229 23.6687 24.9131 23.9173C23.6033 24.1658 22.2559 24.1346 20.959 23.8252L19.3574 25.4268C19.238 25.5466 19.0959 25.6418 18.9397 25.7066C18.7835 25.7715 18.6159 25.8049 18.4467 25.8049H17.1579V27.0937C17.1578 27.2629 17.1244 27.4305 17.0595 27.5867C16.9946 27.7431 16.8996 27.885 16.7798 28.0044L15.9206 28.8636C15.8011 28.9834 15.6591 29.0786 15.5029 29.1434C15.3466 29.2084 15.179 29.2417 15.0098 29.2417H13.721V30.5305C13.721 30.6998 13.6875 30.8673 13.6227 31.0235C13.5578 31.1799 13.4628 31.3219 13.343 31.4413L12.4838 32.3005C12.3643 32.4203 12.2223 32.5155 12.066 32.5803C11.9097 32.6452 11.7422 32.6785 11.573 32.6785H8.13615C7.33857 32.6785 6.57367 32.3618 6.0097 31.7979C5.44573 31.2339 5.12891 30.469 5.12891 29.6713V26.2345C5.12891 25.8925 5.26466 25.566 5.50696 25.3237L13.9822 16.8485C13.6474 15.4587 13.6323 14.011 13.9379 12.6145C14.2436 11.218 14.862 9.909 15.7467 8.78608C16.6314 7.66316 17.7593 6.75556 19.0456 6.1316C20.3318 5.50764 21.7428 5.1836 23.1723 5.18384ZM16.2987 14.6352C16.2969 15.3758 16.4172 16.113 16.6509 16.8158C16.7268 17.043 16.7379 17.2868 16.683 17.5199C16.6281 17.753 16.5092 17.9662 16.3399 18.1356L7.70654 26.7672V29.6713C7.70654 29.9085 7.899 30.1009 8.13615 30.1009H11.0403L11.1434 29.9978V27.9529C11.1434 27.6111 11.2792 27.2834 11.5209 27.0416C11.7626 26.7998 12.0904 26.6641 12.4322 26.6641H14.4771L14.5802 26.561V24.516C14.5802 24.1742 14.716 23.8465 14.9577 23.6048C15.1994 23.363 15.5272 23.2272 15.869 23.2272H17.914L19.6719 21.4658C19.8415 21.2969 20.0548 21.1783 20.2878 21.1237C20.521 21.0691 20.7647 21.0804 20.9917 21.1565C22.3705 21.6179 23.8602 21.6299 25.2465 21.1912C26.6327 20.7525 27.844 19.8856 28.7065 18.7149C29.5688 17.5442 30.0378 16.1302 30.0459 14.6763C30.0541 13.2223 29.6008 11.8032 28.7515 10.623C27.9023 9.44281 26.7006 8.56234 25.3193 8.10818C23.9381 7.65404 22.4484 7.64957 21.0644 8.09546C19.6805 8.54136 18.4735 9.41463 17.6172 10.5897C16.7609 11.7648 16.2993 13.1812 16.2987 14.6352ZM24.0316 15.4944C23.5758 15.4944 23.1387 15.3133 22.8165 14.9911C22.4943 14.6688 22.3131 14.2317 22.3131 13.776C22.3131 13.3202 22.4943 12.8831 22.8165 12.5608C23.1387 12.2386 23.5758 12.0575 24.0316 12.0575C24.4873 12.0575 24.9244 12.2386 25.2467 12.5608C25.5689 12.8831 25.75 13.3202 25.75 13.776C25.75 14.2317 25.5689 14.6688 25.2467 14.9911C24.9244 15.3133 24.4873 15.4944 24.0316 15.4944Z" fill="#8652FF"/>
</svg>
