<svg width="299" height="102" viewBox="0 0 299 102" fill="none" xmlns="http://www.w3.org/2000/svg">
<path d="M33.1259 80.0666C29.5355 80.0666 26.3738 79.3164 23.6408 77.8159C20.9078 76.2618 18.7643 74.0379 17.2102 71.1442C15.6562 68.2504 14.8256 64.7136 14.7184 60.5337H16.2456V78.6197H6.03711V19.9407H18.8983V49.7625L15.8437 53.6208C16.0045 49.173 16.8351 45.4486 18.3356 42.4477C19.8896 39.3932 22.0064 37.1157 24.6858 35.6152C27.3652 34.0612 30.4197 33.2841 33.8494 33.2841C36.8503 33.2841 39.5565 33.8468 41.968 34.9722C44.433 36.0439 46.523 37.598 48.2378 39.6343C49.9526 41.6171 51.2655 43.975 52.1765 46.708C53.1411 49.441 53.6234 52.4151 53.6234 55.6304V57.3988C53.6234 60.6141 53.1411 63.5882 52.1765 66.3212C51.2655 69.0542 49.899 71.4657 48.077 73.5556C46.3086 75.592 44.1651 77.1996 41.6464 78.3786C39.1278 79.5039 36.2876 80.0666 33.1259 80.0666ZM29.7499 69.2954C31.947 69.2954 33.8494 68.7595 35.457 67.6877C37.1182 66.616 38.4043 65.1155 39.3153 63.1863C40.2263 61.2036 40.6818 58.9797 40.6818 56.5146C40.6818 53.996 40.2263 51.7988 39.3153 49.9233C38.4043 48.0477 37.1182 46.6008 35.457 45.5826C33.8494 44.5109 31.947 43.975 29.7499 43.975C27.8207 43.975 25.9987 44.4305 24.2839 45.3415C22.569 46.2525 21.1758 47.5654 20.104 49.2802C19.0858 50.9414 18.5767 52.9778 18.5767 55.3893V58.3634C18.5767 60.6677 19.1126 62.6504 20.1844 64.3117C21.3097 65.9193 22.7298 67.1518 24.4446 68.0093C26.1595 68.8667 27.9279 69.2954 29.7499 69.2954Z" fill="white"/>
<path d="M59.8229 78.6197V34.5703H72.684V78.6197H59.8229ZM53.955 44.0554V34.5703H72.684V44.0554H53.955ZM64.8065 30.2296C62.3951 30.2296 60.5999 29.6134 59.4209 28.3808C58.2956 27.0947 57.7329 25.4871 57.7329 23.5579C57.7329 21.5751 58.2956 19.9675 59.4209 18.735C60.5999 17.4488 62.3951 16.8058 64.8065 16.8058C67.218 16.8058 68.9864 17.4488 70.1118 18.735C71.2907 19.9675 71.8802 21.5751 71.8802 23.5579C71.8802 25.4871 71.2907 27.0947 70.1118 28.3808C68.9864 29.6134 67.218 30.2296 64.8065 30.2296Z" fill="white"/>
<path d="M99.7716 79.1824C95.3237 79.1824 91.7333 78.6465 89.0003 77.5747C86.2673 76.4494 84.2578 74.6006 82.9717 72.0284C81.7391 69.4025 81.1229 65.8657 81.1229 61.4179V22.6737H93.0998V61.9002C93.0998 63.9901 93.6357 65.5978 94.7075 66.7231C95.8328 67.7949 97.4137 68.3308 99.45 68.3308H105.961V79.1824H99.7716ZM74.4512 43.975V34.5703H105.961V43.975H74.4512Z" fill="white"/>
<path d="M129.806 80.147C126.054 80.147 122.732 79.5039 119.838 78.2178C116.998 76.9317 114.613 75.2169 112.684 73.0733C110.809 70.8762 109.362 68.438 108.344 65.7586C107.379 63.0256 106.897 60.239 106.897 57.3988V55.7912C106.897 52.8438 107.379 50.0304 108.344 47.351C109.362 44.618 110.809 42.1798 112.684 40.0362C114.56 37.8927 116.891 36.2047 119.677 34.9722C122.518 33.6861 125.733 33.043 129.323 33.043C134.039 33.043 138.005 34.1148 141.22 36.2583C144.489 38.3482 146.981 41.108 148.695 44.5376C150.41 47.9137 151.268 51.6113 151.268 55.6304V59.971H112.282V52.6563H143.471L139.291 56.0323C139.291 53.4065 138.916 51.1558 138.165 49.2802C137.415 47.4046 136.29 45.9845 134.789 45.0199C133.342 44.0018 131.52 43.4927 129.323 43.4927C127.073 43.4927 125.17 44.0018 123.616 45.0199C122.062 46.0381 120.883 47.5386 120.079 49.5213C119.276 51.4505 118.874 53.8352 118.874 56.6754C118.874 59.3012 119.249 61.6055 119.999 63.5882C120.749 65.5174 121.928 67.0179 123.536 68.0896C125.143 69.1614 127.233 69.6973 129.806 69.6973C132.163 69.6973 134.093 69.2418 135.593 68.3308C137.094 67.4198 138.112 66.2944 138.648 64.9547H150.464C149.821 67.9021 148.561 70.5279 146.686 72.8322C144.81 75.1365 142.452 76.9317 139.612 78.2178C136.772 79.5039 133.503 80.147 129.806 80.147Z" fill="white"/>
<path d="M168.945 23.075L169.748 20.1813C170.016 19.1631 170.15 18.4129 170.15 17.9306C170.15 16.055 168.114 15.1172 164.041 15.1172L164.684 12.7057L179.394 11.9823L173.499 33.6202C173.249 33.3234 172.923 33.0839 172.534 32.9357C172.314 32.8517 172.089 32.8027 171.866 32.786C172.029 31.0294 171.012 29.3061 169.277 28.6436C168.691 28.4197 168.085 28.3407 167.499 28.389L168.945 23.075Z" fill="white"/>
<path fill-rule="evenodd" clip-rule="evenodd" d="M169.516 36.0768C168.568 36.5048 167.454 36.569 166.404 36.1679C166.081 36.0445 165.783 35.8844 165.512 35.6941L158.254 62.382C157.45 65.5437 156.887 68.0355 156.566 69.8575C156.244 71.6795 156.083 73.1264 156.083 74.1981C156.083 76.0737 156.512 77.4134 157.37 78.2172C158.281 79.0211 159.674 79.423 161.549 79.423C162.782 79.423 164.122 79.0479 165.569 78.2976C167.069 77.4938 168.543 76.4488 169.99 75.1627C171.436 73.8766 172.803 72.4029 174.089 70.7417C174.613 70.0428 175.097 69.3349 175.542 68.6181C175.667 69.125 175.812 69.6185 175.976 70.0986C176.673 72.0814 177.611 73.7694 178.79 75.1627C179.969 76.556 181.335 77.6278 182.889 78.378C184.497 79.0747 186.212 79.423 188.034 79.423C190.927 79.423 193.767 78.5656 196.554 76.8508C199.341 75.0823 201.806 72.8316 203.949 70.0986C206.146 67.3657 207.915 64.2843 209.254 60.8547C210.594 57.425 211.264 54.0222 211.264 50.6461C211.264 48.3419 210.916 46.2519 210.219 44.3763C209.576 42.4472 208.665 40.8127 207.486 39.473C206.361 38.0797 204.967 37.0348 203.306 36.3381C201.699 35.5879 199.93 35.2128 198.001 35.2128C195.054 35.2128 192.187 36.0166 189.4 37.6242C186.667 39.2319 184.229 41.3486 182.085 43.9744C179.942 46.6002 178.2 49.6012 176.86 52.9772C175.574 56.3533 174.931 59.7829 174.931 63.2662C174.931 63.5626 174.936 63.8557 174.946 64.1454L174.813 64.07C174.491 64.6594 173.982 65.4901 173.285 66.5618C172.589 67.58 171.785 68.5982 170.874 69.6164C170.016 70.5809 169.105 71.4384 168.141 72.1886C167.176 72.8852 166.265 73.2336 165.408 73.2336C164.818 73.2336 164.39 73.046 164.122 72.6709C163.854 72.2958 163.72 71.8671 163.72 71.3848C163.72 70.6345 163.827 69.7235 164.041 68.6518C164.256 67.5264 164.577 66.2403 165.006 64.7934L172.476 37.3771C171.965 37.5568 171.391 37.5635 170.847 37.3554C170.224 37.1175 169.759 36.6449 169.516 36.0768ZM188.516 75.4039C190.338 75.4039 192.133 74.4661 193.901 72.5905C195.723 70.7149 197.331 68.357 198.724 65.5169C200.171 62.6231 201.323 59.4882 202.181 56.1121C203.092 52.7361 203.547 49.5208 203.547 46.4663C203.547 43.6261 203.038 41.6701 202.02 40.5984C201.055 39.5266 199.716 38.9907 198.001 38.9907C196.822 38.9907 195.616 39.4194 194.384 40.2768C193.205 41.0807 192.079 42.206 191.008 43.6529C189.936 45.0998 188.918 46.761 187.953 48.6366C187.042 50.5122 186.238 52.4949 185.542 54.5849C184.845 56.6748 184.309 58.8183 183.934 61.0155C183.559 63.159 183.371 65.2221 183.371 67.2049C183.371 70.2058 183.854 72.3226 184.818 73.5551C185.783 74.7876 187.015 75.4039 188.516 75.4039Z" fill="white"/>
<path fill-rule="evenodd" clip-rule="evenodd" d="M243.613 36.0166H250.285L245.703 48.3151C244.953 50.3514 244.202 52.5217 243.452 54.826C242.755 57.1303 242.112 59.3542 241.523 61.4977C240.987 63.6413 240.558 65.5972 240.237 67.3657C239.915 69.1341 239.754 70.447 239.754 71.3044C239.754 72.8584 240.264 73.6355 241.282 73.6355C242.032 73.6355 243.104 72.8584 244.497 71.3044C245.944 69.7503 247.552 67.7408 249.32 65.2757L251.41 66.9637C249.159 70.9293 246.721 74.0106 244.095 76.2077C241.523 78.3512 239.031 79.423 236.62 79.423C235.387 79.423 234.422 78.9675 233.726 78.0565C233.083 77.0919 232.761 75.5378 232.761 73.3943V71.7063C232.815 71.0632 232.895 70.2058 233.002 69.1341L232.681 69.0537C231.877 70.5541 230.912 71.9474 229.787 73.2336C228.715 74.4661 227.536 75.5646 226.25 76.5292C224.964 77.4402 223.624 78.1369 222.231 78.6192C220.838 79.155 219.471 79.423 218.132 79.423C215.399 79.423 213.255 78.4048 211.701 76.3685C210.201 74.2785 209.45 71.4116 209.45 67.7676C209.45 64.07 210.227 60.292 211.781 56.4337C213.336 52.5753 215.345 49.0921 217.81 45.984C220.275 42.8223 223.008 40.25 226.009 38.2673C229.01 36.2309 231.957 35.2128 234.851 35.2128C236.62 35.2128 238.066 35.6415 239.192 36.4989C240.317 37.3027 241.228 38.6424 241.925 40.518L243.613 36.0166ZM235.333 39.3926C233.297 39.3926 231.18 40.3304 228.983 42.206C226.84 44.0816 224.884 46.4395 223.115 49.2797C221.347 52.0662 219.9 55.094 218.775 58.3628C217.649 61.5781 217.087 64.5791 217.087 67.3657C217.087 69.2948 217.489 70.8489 218.292 72.0278C219.096 73.1532 220.195 73.7158 221.588 73.7158C222.821 73.7158 224.107 73.2336 225.446 72.269C226.786 71.2508 228.072 69.9379 229.305 68.3302C230.591 66.669 231.797 64.7934 232.922 62.7035C234.047 60.6135 235.039 58.47 235.896 56.2729C236.754 54.0222 237.423 51.8251 237.906 49.6816C238.388 47.538 238.629 45.6089 238.629 43.894C238.629 42.5007 238.334 41.4022 237.745 40.5984C237.155 39.7945 236.352 39.3926 235.333 39.3926Z" fill="white"/>
<path d="M282.221 39.3926C280.935 39.3926 279.462 40.0625 277.8 41.4022C276.193 42.6883 274.532 44.4299 272.817 46.627C271.155 48.7706 269.548 51.2356 267.994 54.0222C266.44 56.8088 265.127 59.649 264.055 62.5427L258.107 78.6192H251.033L256.981 60.2116C257.946 57.2643 258.75 54.7456 259.393 52.6557C260.036 50.5658 260.545 48.8242 260.92 47.4309C261.349 45.984 261.644 44.8318 261.804 43.9744C261.965 43.0634 262.045 42.34 262.045 41.8041C262.045 40.3572 261.59 39.6338 260.679 39.6338C260.09 39.6338 259.393 40.0089 258.589 40.7591C257.785 41.5094 256.955 42.5008 256.097 43.7333C255.293 44.9122 254.516 46.2787 253.766 47.8328C253.016 49.3868 252.373 50.9677 251.837 52.5753L249.425 51.3696C251.301 45.85 253.391 41.7773 255.695 39.1515C258.053 36.5257 260.733 35.2128 263.734 35.2128C265.448 35.2128 266.654 35.6951 267.351 36.6596C268.101 37.6242 268.476 39.2587 268.476 41.563C268.476 44.296 268.021 46.7342 267.11 48.8777L267.351 49.1189C270.084 44.296 272.843 40.7859 275.63 38.5888C278.47 36.3381 281.552 35.2128 284.874 35.2128C287.232 35.2128 289.027 35.7754 290.26 36.9008C291.492 38.0261 292.108 39.6338 292.108 41.7237C292.108 42.4204 292.028 43.1974 291.867 44.0548C291.76 44.9122 291.546 45.9572 291.224 47.1897C290.903 48.3687 290.447 49.7887 289.858 51.45C289.322 53.1112 288.652 55.1476 287.848 57.559C286.616 61.203 285.597 64.2575 284.794 66.7226C283.99 69.1876 283.588 70.9293 283.588 71.9474C283.588 72.7513 283.856 73.1532 284.392 73.1532C285.142 73.1532 286.241 72.5369 287.687 71.3044C289.134 70.0719 291.09 68.0891 293.555 65.3561L295.645 66.4814C294.788 68.0891 293.662 69.6699 292.269 71.224C290.929 72.7245 289.509 74.091 288.009 75.3235C286.562 76.556 285.115 77.5474 283.668 78.2976C282.221 79.0479 280.962 79.423 279.89 79.423C278.551 79.423 277.479 78.8335 276.675 77.6546C275.925 76.4756 275.55 74.9216 275.55 72.9924C275.55 72.2422 275.603 71.4919 275.71 70.7417C275.871 69.9379 276.166 68.8125 276.595 67.3657C277.023 65.9188 277.64 63.9896 278.443 61.5781C279.301 59.1131 280.453 55.871 281.9 51.8519C282.382 50.4586 282.784 49.2797 283.106 48.3151C283.427 47.3505 283.668 46.5199 283.829 45.8232C284.043 45.073 284.177 44.4299 284.231 43.894C284.338 43.3582 284.392 42.8491 284.392 42.3668C284.392 40.384 283.668 39.3926 282.221 39.3926Z" fill="white"/>
</svg>
