<svg width="114" height="39" viewBox="0 0 114 39" fill="none" xmlns="http://www.w3.org/2000/svg">
<path d="M12.5758 30.5521C11.2057 30.5521 9.99928 30.2658 8.95641 29.6933C7.91354 29.1003 7.09561 28.2517 6.5026 27.1474C5.9096 26.0432 5.59265 24.6936 5.55175 23.0987H6.13453V30H2.2391V7.60897H7.14673V18.9885L5.98117 20.4608C6.04251 18.7636 6.35946 17.3424 6.93202 16.1973C7.52502 15.0317 8.33274 14.1627 9.35516 13.5901C10.3776 12.9971 11.5431 12.7006 12.8518 12.7006C13.997 12.7006 15.0296 12.9153 15.9498 13.3448C16.8904 13.7537 17.6879 14.3467 18.3422 15.1238C18.9966 15.8804 19.4976 16.7801 19.8452 17.823C20.2133 18.8658 20.3973 20.0007 20.3973 21.2276V21.9024C20.3973 23.1293 20.2133 24.2642 19.8452 25.3071C19.4976 26.35 18.9761 27.2701 18.2809 28.0676C17.6061 28.8447 16.7882 29.4581 15.8271 29.908C14.866 30.3374 13.7822 30.5521 12.5758 30.5521ZM11.2875 26.442C12.1259 26.442 12.8518 26.2375 13.4653 25.8285C14.0992 25.4196 14.59 24.847 14.9376 24.1109C15.2852 23.3543 15.459 22.5057 15.459 21.565C15.459 20.6039 15.2852 19.7656 14.9376 19.0499C14.59 18.3342 14.0992 17.7821 13.4653 17.3935C12.8518 16.9846 12.1259 16.7801 11.2875 16.7801C10.5514 16.7801 9.85614 16.9539 9.20179 17.3015C8.54744 17.6491 8.01578 18.1501 7.60682 18.8045C7.2183 19.4384 7.02404 20.2154 7.02404 21.1356V22.2705C7.02404 23.1498 7.22852 23.9064 7.63749 24.5403C8.06691 25.1537 8.60879 25.624 9.26314 25.9512C9.91749 26.2784 10.5923 26.442 11.2875 26.442ZM22.7629 30V13.1914H27.6706V30H22.7629ZM20.5238 16.8108V13.1914H27.6706V16.8108H20.5238ZM24.6646 11.5351C23.7445 11.5351 23.0594 11.2999 22.6096 10.8296C22.1802 10.3388 21.9654 9.72538 21.9654 8.98924C21.9654 8.23265 22.1802 7.61919 22.6096 7.14888C23.0594 6.65812 23.7445 6.41274 24.6646 6.41274C25.5848 6.41274 26.2596 6.65812 26.689 7.14888C27.1389 7.61919 27.3638 8.23265 27.3638 8.98924C27.3638 9.72538 27.1389 10.3388 26.689 10.8296C26.2596 11.2999 25.5848 11.5351 24.6646 11.5351ZM38.0068 30.2147C36.3095 30.2147 34.9395 30.0102 33.8966 29.6013C32.8538 29.1718 32.0869 28.4664 31.5962 27.4848C31.1259 26.4829 30.8907 25.1333 30.8907 23.4361V8.65184H35.4609V23.6201C35.4609 24.4176 35.6654 25.031 36.0744 25.4604C36.5038 25.8694 37.107 26.0739 37.8841 26.0739H40.3686V30.2147H38.0068ZM28.3449 16.7801V13.1914H40.3686V16.7801H28.3449ZM49.4673 30.5828C48.0359 30.5828 46.7681 30.3374 45.6639 29.8466C44.5801 29.3559 43.6702 28.7015 42.934 27.8836C42.2183 27.0452 41.6662 26.1148 41.2777 25.0924C40.9096 24.0495 40.7256 22.9862 40.7256 21.9024V21.289C40.7256 20.1643 40.9096 19.0908 41.2777 18.0683C41.6662 17.0255 42.2183 16.0951 42.934 15.2771C43.6497 14.4592 44.5392 13.8151 45.6026 13.3448C46.6863 12.854 47.9132 12.6086 49.2833 12.6086C51.0827 12.6086 52.5959 13.0176 53.8228 13.8355C55.0702 14.633 56.021 15.6861 56.6754 16.9948C57.3297 18.283 57.6569 19.694 57.6569 21.2276V22.8839H42.7807V20.0927H54.6817L53.0867 21.381C53.0867 20.379 52.9435 19.5202 52.6573 18.8045C52.371 18.0888 51.9416 17.5469 51.369 17.1788C50.8169 16.7903 50.1217 16.5961 49.2833 16.5961C48.4244 16.5961 47.6985 16.7903 47.1055 17.1788C46.5125 17.5674 46.0626 18.1399 45.7559 18.8965C45.4492 19.6326 45.2958 20.5426 45.2958 21.6264C45.2958 22.6283 45.439 23.5076 45.7252 24.2642C46.0115 25.0004 46.4614 25.5729 47.0748 25.9819C47.6883 26.3909 48.4858 26.5953 49.4673 26.5953C50.367 26.5953 51.1032 26.4215 51.6757 26.0739C52.2483 25.7263 52.6368 25.2969 52.8413 24.7857H57.3502C57.1048 25.9103 56.6243 26.9123 55.9086 27.7916C55.1929 28.6709 54.2931 29.3559 53.2094 29.8466C52.1256 30.3374 50.8782 30.5828 49.4673 30.5828Z" fill="#8652FF"/>
<path fill-rule="evenodd" clip-rule="evenodd" d="M64.4023 8.80521L64.709 7.701C64.8112 7.31248 64.8623 7.0262 64.8623 6.84216C64.8623 6.12647 64.0853 5.76862 62.5312 5.76862L62.7766 4.84844L68.3897 4.57239L66.1402 12.8291C66.0448 12.7158 65.9202 12.6245 65.772 12.5679C65.688 12.5358 65.6023 12.5171 65.517 12.5108C65.5793 11.8405 65.1912 11.1829 64.5291 10.9301C64.3054 10.8446 64.0742 10.8145 63.8507 10.833L64.4023 8.80521ZM64.6203 13.7665C64.2585 13.9298 63.8336 13.9543 63.4327 13.8012C63.3095 13.7542 63.1957 13.6931 63.0926 13.6205L60.3228 23.8041C60.0161 25.0106 59.8014 25.9614 59.6787 26.6567C59.556 27.3519 59.4946 27.904 59.4946 28.313C59.4946 29.0287 59.6582 29.5399 59.9854 29.8466C60.333 30.1534 60.8647 30.3067 61.5804 30.3067C62.0507 30.3067 62.5619 30.1636 63.114 29.8773C63.6866 29.5706 64.2489 29.1719 64.801 28.6811C65.3531 28.1903 65.8745 27.628 66.3653 26.9941C66.5653 26.7274 66.7501 26.4573 66.9195 26.1838C66.9674 26.3772 67.0227 26.5655 67.0854 26.7487C67.3512 27.5053 67.7091 28.1494 68.1589 28.6811C68.6088 29.2127 69.1302 29.6217 69.7232 29.908C70.3367 30.1738 70.991 30.3067 71.6863 30.3067C72.7905 30.3067 73.8743 29.9796 74.9376 29.3252C76.0009 28.6504 76.9415 27.7916 77.7595 26.7487C78.5979 25.7058 79.2727 24.5301 79.7839 23.2214C80.2951 21.9127 80.5507 20.6142 80.5507 19.3259C80.5507 18.4466 80.4178 17.6492 80.1519 16.9335C79.9066 16.1973 79.5589 15.5736 79.1091 15.0624C78.6796 14.5308 78.148 14.132 77.5141 13.8662C76.9006 13.5799 76.2258 13.4368 75.4897 13.4368C74.365 13.4368 73.271 13.7435 72.2077 14.357C71.1649 14.9704 70.2344 15.7781 69.4165 16.7801C68.5986 17.7821 67.934 18.9272 67.4228 20.2154C66.932 21.5037 66.6866 22.8124 66.6866 24.1415C66.6866 24.2547 66.6885 24.3665 66.6922 24.4771L66.6414 24.4483C66.5187 24.6732 66.3244 24.9901 66.0586 25.3991C65.7927 25.7876 65.486 26.1762 65.1384 26.5647C64.8112 26.9327 64.4636 27.2599 64.0955 27.5462C63.7275 27.812 63.3798 27.9449 63.0527 27.9449C62.8277 27.9449 62.6641 27.8734 62.5619 27.7302C62.4597 27.5871 62.4085 27.4235 62.4085 27.2395C62.4085 26.9532 62.4494 26.6056 62.5312 26.1966C62.613 25.7672 62.7357 25.2764 62.8993 24.7243L65.7496 14.2626C65.5549 14.3312 65.3359 14.3338 65.128 14.2544C64.8903 14.1636 64.7131 13.9833 64.6203 13.7665ZM71.8703 28.7731C72.5656 28.7731 73.2506 28.4153 73.9254 27.6996C74.6206 26.9839 75.2341 26.0841 75.7657 25.0004C76.3179 23.8962 76.7575 22.6999 77.0847 21.4117C77.4323 20.1234 77.6061 18.8965 77.6061 17.731C77.6061 16.6472 77.4118 15.9008 77.0233 15.4918C76.6553 15.0829 76.144 14.8784 75.4897 14.8784C75.0398 14.8784 74.5797 15.042 74.1094 15.3692C73.6596 15.6759 73.2301 16.1053 72.8212 16.6574C72.4122 17.2095 72.0237 17.8434 71.6556 18.5591C71.308 19.2748 71.0013 20.0314 70.7354 20.8289C70.4696 21.6264 70.2651 22.4443 70.122 23.2827C69.9788 24.1006 69.9073 24.8879 69.9073 25.6445C69.9073 26.7896 70.0913 27.5973 70.4594 28.0676C70.8275 28.5379 71.2978 28.7731 71.8703 28.7731ZM89.7352 15.0318C88.9582 15.0318 88.1505 15.3896 87.3121 16.1053C86.4941 16.821 85.7478 17.7207 85.073 18.8045C84.3982 19.8678 83.8461 21.0231 83.4167 22.2705C82.9872 23.4974 82.7725 24.6425 82.7725 25.7058C82.7725 26.442 82.9259 27.035 83.2326 27.4849C83.5393 27.9143 83.9585 28.129 84.4902 28.129C84.9605 28.129 85.4513 27.9449 85.9625 27.5769C86.4737 27.1884 86.9645 26.6874 87.4348 26.0739C87.9255 25.44 88.3856 24.7243 88.815 23.9268C89.2445 23.1293 89.6228 22.3114 89.9499 21.473C90.2771 20.6142 90.5327 19.7758 90.7167 18.9579C90.9008 18.1399 90.9928 17.4038 90.9928 16.7494C90.9928 16.2178 90.8803 15.7986 90.6554 15.4918C90.4305 15.1851 90.1237 15.0318 89.7352 15.0318ZM92.8945 13.7435H95.4403L93.692 18.4364C93.4057 19.2135 93.1194 20.0416 92.8332 20.9209C92.5673 21.8002 92.3219 22.6488 92.097 23.4667C91.8925 24.2847 91.7289 25.031 91.6063 25.7058C91.4836 26.3806 91.4222 26.8816 91.4222 27.2088C91.4222 27.8018 91.6165 28.0983 92.005 28.0983C92.2913 28.0983 92.7002 27.8018 93.2319 27.2088C93.784 26.6158 94.3975 25.849 95.0723 24.9084L95.8698 25.5525C95.0109 27.0657 94.0805 28.2414 93.0785 29.0798C92.097 29.8978 91.1462 30.3067 90.226 30.3067C89.7557 30.3067 89.3876 30.1329 89.1218 29.7853C88.8764 29.4172 88.7537 28.8242 88.7537 28.0063V27.3622C88.7741 27.1168 88.8048 26.7896 88.8457 26.3806L88.723 26.35C88.4163 26.9225 88.0482 27.4542 87.6188 27.9449C87.2098 28.4153 86.76 28.8344 86.2692 29.2025C85.7785 29.5501 85.2672 29.816 84.7356 30C84.2039 30.2045 83.6825 30.3067 83.1713 30.3067C82.1284 30.3067 81.3105 29.9182 80.7175 29.1412C80.1449 28.3437 79.8586 27.2497 79.8586 25.8592C79.8586 24.4483 80.1551 23.0066 80.7481 21.5344C81.3411 20.0621 82.108 18.7329 83.0486 17.5469C83.9892 16.3405 85.0321 15.3589 86.1772 14.6023C87.3223 13.8253 88.447 13.4368 89.5512 13.4368C90.226 13.4368 90.7781 13.6004 91.2075 13.9275C91.6369 14.2343 91.9845 14.7455 92.2504 15.4612L92.8945 13.7435ZM107.627 15.0318C107.136 15.0318 106.574 15.2874 105.94 15.7986C105.327 16.2893 104.693 16.9539 104.038 17.7923C103.404 18.6102 102.791 19.5509 102.198 20.6142C101.605 21.6775 101.104 22.7613 100.695 23.8655L98.4252 30H95.726L97.9957 22.976C98.3638 21.8513 98.6705 20.8902 98.9159 20.0927C99.1613 19.2953 99.3556 18.6307 99.4987 18.099C99.6623 17.5469 99.7748 17.1073 99.8361 16.7801C99.8974 16.4325 99.9281 16.1564 99.9281 15.9519C99.9281 15.3998 99.7543 15.1238 99.4067 15.1238C99.1818 15.1238 98.9159 15.2669 98.6092 15.5532C98.3025 15.8395 97.9855 16.2178 97.6583 16.6881C97.3516 17.1379 97.0551 17.6594 96.7688 18.2524C96.4826 18.8454 96.2372 19.4486 96.0327 20.0621L95.1125 19.602C95.8282 17.4958 96.6257 15.9417 97.505 14.9397C98.4047 13.9378 99.4271 13.4368 100.572 13.4368C101.227 13.4368 101.687 13.6208 101.953 13.9889C102.239 14.357 102.382 14.9806 102.382 15.8599C102.382 16.9028 102.208 17.8332 101.861 18.6511L101.953 18.7432C102.995 16.9028 104.048 15.5634 105.112 14.725C106.196 13.8662 107.371 13.4368 108.639 13.4368C109.539 13.4368 110.224 13.6515 110.694 14.0809C111.165 14.5103 111.4 15.1238 111.4 15.9213C111.4 16.1871 111.369 16.4836 111.308 16.8108C111.267 17.1379 111.185 17.5367 111.062 18.007C110.94 18.4569 110.766 18.9988 110.541 19.6327C110.336 20.2666 110.081 21.0436 109.774 21.9638C109.304 23.3543 108.915 24.5198 108.608 25.4605C108.302 26.4011 108.148 27.0657 108.148 27.4542C108.148 27.7609 108.251 27.9143 108.455 27.9143C108.741 27.9143 109.161 27.6791 109.713 27.2088C110.265 26.7385 111.011 25.9819 111.952 24.939L112.749 25.3684C112.422 25.9819 111.993 26.5851 111.461 27.1781C110.95 27.7507 110.408 28.2721 109.835 28.7424C109.283 29.2127 108.731 29.591 108.179 29.8773C107.627 30.1636 107.146 30.3067 106.737 30.3067C106.226 30.3067 105.817 30.0818 105.511 29.6319C105.224 29.1821 105.081 28.5891 105.081 27.8529C105.081 27.5666 105.102 27.2804 105.142 26.9941C105.204 26.6874 105.316 26.2579 105.48 25.7058C105.643 25.1537 105.879 24.4176 106.185 23.4974C106.513 22.5568 106.952 21.3197 107.504 19.786C107.688 19.2544 107.842 18.8045 107.964 18.4364C108.087 18.0684 108.179 17.7514 108.24 17.4856C108.322 17.1993 108.373 16.9539 108.394 16.7494C108.435 16.5449 108.455 16.3507 108.455 16.1666C108.455 15.4101 108.179 15.0318 107.627 15.0318Z" fill="black"/>
</svg>
