<svg width="37" height="38" viewBox="0 0 37 38" fill="none" xmlns="http://www.w3.org/2000/svg">
<g clip-path="url(#clip0_119_2583)">
<path d="M30.0837 21.947C32.1208 19.91 33.2653 17.1471 33.2653 14.2663C33.2653 11.3854 32.1208 8.62259 30.0837 6.58553C28.0466 4.54846 25.2838 3.40405 22.403 3.40405C19.5221 3.40405 16.7592 4.54846 14.7222 6.58553" fill="white"/>
<path d="M30.0837 21.947C32.1208 19.91 33.2653 17.1471 33.2653 14.2663C33.2653 11.3855 32.1208 8.62259 30.0837 6.58553C28.0466 4.54846 25.2838 3.40405 22.403 3.40405C19.5221 3.40405 16.7592 4.54846 14.7222 6.58553" stroke="#8652FF" stroke-width="2.53449" stroke-miterlimit="10"/>
<path d="M24.963 16.8267C25.633 16.1458 26.0066 15.2279 26.0028 14.2727C25.9989 13.3175 25.6178 12.4026 24.9423 11.7272C24.2669 11.0518 23.352 10.6707 22.3968 10.6668C21.4417 10.6629 20.5237 11.0366 19.8428 11.7065" fill="white"/>
<path d="M24.963 16.8267C25.633 16.1458 26.0066 15.2279 26.0028 14.2727C25.9989 13.3175 25.6178 12.4026 24.9423 11.7272C24.2669 11.0518 23.352 10.6707 22.3968 10.6668C21.4417 10.6629 20.5237 11.0366 19.8428 11.7065" stroke="#8652FF" stroke-width="2.53449" stroke-miterlimit="10"/>
<path d="M12.7473 34.7845V31.1637M5.06694 31.6029L7.62707 29.0428M1.88525 23.9224H5.50594" stroke="#8652FF" stroke-width="1.56899"/>
<path d="M12.7473 34.7845V31.1637V34.7845ZM5.06694 31.6029L7.62707 29.0428L5.06694 31.6029ZM1.88525 23.9224H5.50594H1.88525Z" fill="white"/>
<path d="M12.7473 34.7845V31.1637M5.06694 31.6029L7.62707 29.0428M1.88525 23.9224H5.50594" stroke="#8652FF" stroke-width="2.53449" stroke-miterlimit="10" stroke-linecap="round"/>
<path d="M19.8412 11.7065L11.307 20.24C10.8544 20.6925 10.2405 20.9468 9.6004 20.9468C8.96031 20.9468 8.34643 20.6925 7.89377 20.24L6.18374 18.5337C5.95955 18.3095 5.7817 18.0434 5.66035 17.7506C5.53902 17.4577 5.47656 17.1438 5.47656 16.8267C5.47656 16.5097 5.53902 16.1958 5.66035 15.9029C5.7817 15.61 5.95955 15.3439 6.18374 15.1197L14.721 6.58545M30.0825 21.9471L21.5483 30.4843C21.3241 30.7085 21.058 30.8863 20.7652 31.0077C20.4723 31.129 20.1583 31.1914 19.8412 31.1914C19.5243 31.1914 19.2103 31.129 18.9174 31.0077C18.6246 30.8863 18.3584 30.7085 18.1343 30.4843L16.4281 28.7772C16.2038 28.5532 16.026 28.2871 15.9047 27.9941C15.7833 27.7012 15.7209 27.3873 15.7209 27.0703C15.7209 26.7532 15.7833 26.4393 15.9047 26.1465C16.026 25.8536 16.2038 25.5875 16.4281 25.3633L24.9615 16.8267M8.79367 12.6056L13.9139 17.7266L8.79367 12.6056ZM19.0341 22.8469L24.1552 27.9672L19.0341 22.8469Z" fill="white"/>
<path d="M19.8412 11.7065L11.307 20.24C10.8544 20.6925 10.2405 20.9468 9.6004 20.9468C8.96031 20.9468 8.34643 20.6925 7.89377 20.24L6.18374 18.5337C5.95955 18.3095 5.7817 18.0434 5.66035 17.7506C5.53902 17.4577 5.47656 17.1438 5.47656 16.8267C5.47656 16.5097 5.53902 16.1958 5.66035 15.9029C5.7817 15.61 5.95955 15.3439 6.18374 15.1197L14.721 6.58545M30.0825 21.9471L21.5483 30.4843C21.3241 30.7085 21.058 30.8863 20.7652 31.0077C20.4723 31.129 20.1583 31.1914 19.8412 31.1914C19.5243 31.1914 19.2103 31.129 18.9174 31.0077C18.6246 30.8863 18.3584 30.7085 18.1343 30.4843L16.4281 28.7772C16.2038 28.5532 16.026 28.2871 15.9047 27.9941C15.7833 27.7012 15.7209 27.3873 15.7209 27.0703C15.7209 26.7532 15.7833 26.4393 15.9047 26.1465C16.026 25.8536 16.2038 25.5875 16.4281 25.3633L24.9615 16.8267M8.79367 12.6056L13.9139 17.7266M19.0341 22.8469L24.1552 27.9672" stroke="#8652FF" stroke-width="2.53449" stroke-linejoin="round"/>
</g>
<defs>
<clipPath id="clip0_119_2583">
<rect width="36.0869" height="36.0869" fill="white" transform="translate(0.316406 0.956543)"/>
</clipPath>
</defs>
</svg>
