<svg width="25" height="25" viewBox="0 0 25 25" fill="none" xmlns="http://www.w3.org/2000/svg">
<path d="M17.3164 2.8042H7.31641C4.55498 2.8042 2.31641 5.04278 2.31641 7.8042V17.8042C2.31641 20.5656 4.55498 22.8042 7.31641 22.8042H17.3164C20.0778 22.8042 22.3164 20.5656 22.3164 17.8042V7.8042C22.3164 5.04278 20.0778 2.8042 17.3164 2.8042Z" stroke="white" stroke-width="2" stroke-linecap="round" stroke-linejoin="round"/>
<path d="M16.3161 12.174C16.4395 13.0063 16.2974 13.8562 15.9099 14.603C15.5224 15.3498 14.9093 15.9554 14.1577 16.3337C13.4062 16.7119 12.5546 16.8436 11.7239 16.7099C10.8932 16.5763 10.1259 16.1841 9.53095 15.5892C8.93603 14.9943 8.54385 14.2269 8.41018 13.3962C8.27652 12.5656 8.40818 11.7139 8.78644 10.9624C9.1647 10.2109 9.7703 9.59775 10.5171 9.21025C11.2639 8.82275 12.1139 8.6806 12.9461 8.80401C13.795 8.9299 14.581 9.32548 15.1878 9.93232C15.7947 10.5392 16.1902 11.3251 16.3161 12.174Z" stroke="white" stroke-width="2" stroke-linecap="round" stroke-linejoin="round"/>
<path d="M17.8164 7.3042H17.8264" stroke="white" stroke-width="2" stroke-linecap="round" stroke-linejoin="round"/>
</svg>
