<svg width="25" height="25" viewBox="0 0 25 25" fill="none" xmlns="http://www.w3.org/2000/svg">
<path d="M16.3164 8.8042C17.9077 8.8042 19.4338 9.43634 20.559 10.5616C21.6843 11.6868 22.3164 13.2129 22.3164 14.8042V21.8042H18.3164V14.8042C18.3164 14.2738 18.1057 13.7651 17.7306 13.39C17.3555 13.0149 16.8468 12.8042 16.3164 12.8042C15.786 12.8042 15.2773 13.0149 14.9022 13.39C14.5271 13.7651 14.3164 14.2738 14.3164 14.8042V21.8042H10.3164V14.8042C10.3164 13.2129 10.9485 11.6868 12.0738 10.5616C13.199 9.43634 14.7251 8.8042 16.3164 8.8042Z" stroke="white" stroke-width="2" stroke-linecap="round" stroke-linejoin="round"/>
<path d="M6.31641 9.8042H2.31641V21.8042H6.31641V9.8042Z" stroke="white" stroke-width="2" stroke-linecap="round" stroke-linejoin="round"/>
<path d="M4.31641 6.8042C5.42098 6.8042 6.31641 5.90877 6.31641 4.8042C6.31641 3.69963 5.42098 2.8042 4.31641 2.8042C3.21184 2.8042 2.31641 3.69963 2.31641 4.8042C2.31641 5.90877 3.21184 6.8042 4.31641 6.8042Z" stroke="white" stroke-width="2" stroke-linecap="round" stroke-linejoin="round"/>
</svg>
