<svg width="16" height="16" viewBox="0 0 16 16" fill="none" xmlns="http://www.w3.org/2000/svg">
<rect width="16" height="16" rx="3.5" fill="white"/>
<path d="M8.54355 12.7894C7.95147 12.7894 7.43008 12.6657 6.97939 12.4183C6.5287 12.162 6.17522 11.7953 5.91894 11.3181C5.66267 10.8409 5.52569 10.2576 5.50802 9.56834H5.75988V12.5508H4.07642V2.87427H6.19731V7.79209L5.6936 8.42836C5.72011 7.69488 5.85708 7.08071 6.10452 6.58583C6.3608 6.08212 6.70986 5.70654 7.15171 5.45911C7.59356 5.20283 8.09728 5.07469 8.66285 5.07469C9.15772 5.07469 9.60399 5.16748 10.0017 5.35306C10.4082 5.5298 10.7528 5.78608 11.0356 6.12189C11.3184 6.44886 11.5349 6.83769 11.6851 7.28838C11.8442 7.73907 11.9237 8.22952 11.9237 8.75975V9.05137C11.9237 9.58159 11.8442 10.0721 11.6851 10.5227C11.5349 10.9734 11.3095 11.3711 11.0091 11.7157C10.7175 12.0516 10.364 12.3167 9.94864 12.5111C9.5333 12.6967 9.06493 12.7894 8.54355 12.7894ZM7.98681 11.0132C8.34913 11.0132 8.66285 10.9248 8.92796 10.7481C9.20191 10.5713 9.414 10.3239 9.56423 10.0058C9.71446 9.6788 9.78957 9.31206 9.78957 8.90556C9.78957 8.49022 9.71446 8.1279 9.56423 7.8186C9.414 7.5093 9.20191 7.2707 8.92796 7.1028C8.66285 6.92606 8.34913 6.83769 7.98681 6.83769C7.66868 6.83769 7.36822 6.9128 7.08543 7.06303C6.80265 7.21326 6.57288 7.42977 6.39614 7.71256C6.22824 7.9865 6.14429 8.32231 6.14429 8.71998V9.21044C6.14429 9.59043 6.23266 9.9174 6.4094 10.1914C6.59498 10.4565 6.82916 10.6597 7.11195 10.8011C7.39473 10.9425 7.68635 11.0132 7.98681 11.0132Z" fill="#8652FF"/>
</svg>
